<?xml version="1.0" encoding="iso-8859-1"?>
<!-- Generator: Adobe Illustrator 19.0.0, SVG Export Plug-In . SVG Version: 6.00 Build 0)  -->
<svg version="1.1" id="Capa_1" xmlns="http://www.w3.org/2000/svg" xmlns:xlink="http://www.w3.org/1999/xlink" x="0px" y="0px"
	 viewBox="0 0 512 512" style="enable-background:new 0 0 512 512;" xml:space="preserve">
<g>
	<polygon style="fill:#FF0F3B;" points="433.602,390.216 433.602,512 342.264,451.108 	"/>
	<polygon style="fill:#FF0F3B;" points="169.736,451.108 78.398,512 78.398,390.216 	"/>
</g>
<polygon style="fill:#B00B20;" points="372.71,451.108 256,420.662 139.29,451.108 78.398,512 433.602,512 "/>
<polygon style="fill:#D6112E;" points="78.398,390.216 139.29,451.108 372.71,451.108 433.602,390.216 256,359.77 "/>
<polygon style="fill:#FF0F3B;" points="403.156,119.247 372.71,254.731 403.156,390.216 433.602,390.216 433.602,119.247 "/>
<rect x="78.398" y="119.247" style="fill:#FF4D6B;" width="324.757" height="270.969"/>
<path style="fill:#2B2B2B;" d="M332.115,162.379c-4.205,0-7.611-3.407-7.611-7.611V83.726c0-37.773-30.73-68.503-68.503-68.503
	s-68.503,30.73-68.503,68.503v71.041c0,4.205-3.407,7.611-7.611,7.611s-7.611-3.407-7.611-7.611V83.726
	C172.274,37.56,209.834,0,256,0s83.726,37.56,83.726,83.726v71.041C339.726,158.972,336.32,162.379,332.115,162.379z"/>
<g>
</g>
<g>
</g>
<g>
</g>
<g>
</g>
<g>
</g>
<g>
</g>
<g>
</g>
<g>
</g>
<g>
</g>
<g>
</g>
<g>
</g>
<g>
</g>
<g>
</g>
<g>
</g>
<g>
</g>
</svg>
